<?xml version="1.0" encoding="UTF-8"?>
<svg id="Layer_2" data-name="Layer 2" xmlns="http://www.w3.org/2000/svg" viewBox="0 0 1000.15 213.72">
  <defs>
    <style>
      .cls-1 {
        fill: #62e4a4;
      }

      .cls-2 {
        fill: #232d39;
      }
    </style>
  </defs>
  <g id="Layer_1-2" data-name="Layer 1">
    <g>
      <g>
        <path class="cls-2" d="m213.72,26.25v161.22c0,14.5-11.75,26.25-26.25,26.25H26.25c-14.5,0-26.25-11.75-26.25-26.25V26.25C0,13.99,8.4,3.7,19.75.81c2.08-.53,4.26-.81,6.5-.81h161.22c14.5,0,26.25,11.75,26.25,26.25Z"/>
        <path class="cls-1" d="m70.78,43.79c-10.25,0-19.81,3.01-27.81,8.19v30.76c.69-1.63,1.51-3.19,2.46-4.66h0c.51-.8,1.06-1.56,1.64-2.31,5.57-7.1,14.22-11.67,23.93-11.67,16.76,0,30.38,13.63,30.38,30.39,0,2.98-.43,5.86-1.24,8.59-3.71,12.59-15.37,21.8-29.15,21.8-4.34,0-8.46-.91-12.2-2.56-7.12-3.13-12.81-8.91-15.83-16.08-1.23-2.92-2.01-6.07-2.26-9.36-.06-.78-.1-1.58-.1-2.38,0-.41-.02-4.15-.02-4.15V0l-20.84.81v77.11l.14-.2c-.05.15-.09.29-.14.44v18.65c.05,1.22.15,2.44.3,3.64.36,3.03.99,5.98,1.86,8.83.03.12.07.24.11.36,3.25,10.3,9.74,19.2,18.28,25.52.1.07.19.14.29.21,0,0,0,0,0,0,.78.57,1.56,1.11,2.37,1.63,2.08,1.34,4.26,2.54,6.54,3.58,6.48,2.96,13.69,4.61,21.27,4.61.15,0,.3,0,.45,0,15.38-.13,29.15-7.04,38.44-17.86,4.82-5.61,8.43-12.28,10.43-19.6,1.15-4.22,1.77-8.66,1.77-13.24,0-27.96-22.92-50.7-51.09-50.7Z"/>
        <path class="cls-1" d="m70.78,43.79c-10.25,0-19.81,3.01-27.81,8.19v30.76c.69-1.63,1.51-3.19,2.46-4.66h0c.51-.8,1.06-1.56,1.64-2.31,5.57-7.1,14.22-11.67,23.93-11.67,16.76,0,30.38,13.63,30.38,30.39,0,2.98-.43,5.86-1.24,8.59-3.71,12.59-15.37,21.8-29.15,21.8-4.34,0-8.46-.91-12.2-2.56-7.12-3.13-12.81-8.91-15.83-16.08-1.23-2.92-2.01-6.07-2.26-9.36-.06-.78-.1-1.58-.1-2.38,0-.41-.02-4.15-.02-4.15V0h-14.34c-2.24,0-4.42.28-6.5.81v77.11l.14-.2c-.05.15-.09.29-.14.44v18.65c.05,1.22.15,2.44.3,3.64.36,3.03.99,5.98,1.86,8.83.03.12.07.24.11.36,3.25,10.3,9.74,19.2,18.28,25.52.1.07.19.14.29.21,0,0,0,0,0,0,.78.57,1.56,1.11,2.37,1.63,2.08,1.34,4.26,2.54,6.54,3.58,6.48,2.96,13.69,4.61,21.27,4.61.15,0,.3,0,.45,0,15.38-.13,29.15-7.04,38.44-17.86,4.82-5.61,8.43-12.28,10.43-19.6,1.15-4.22,1.77-8.66,1.77-13.24,0-27.96-22.92-50.7-51.09-50.7Z"/>
        <path class="cls-1" d="m213.72,116.23v37.02c-3.49-14.19-16.31-24.72-31.57-24.72-17.94,0-32.49,14.53-32.52,32.46,0,.74.03,1.49.08,2.22v50.51h-22.41v-52.77c0-.93.03-1.86.07-2.78.06-1.16.15-2.3.28-3.43,1.28-11.3,5.98-21.55,13.06-29.7,2.66-3.06,5.65-5.82,8.92-8.23,9.08-6.69,20.3-10.65,32.45-10.65s22.71,3.72,31.65,10.06Z"/>
        <path class="cls-1" d="m139.48,123.35c-.1.12-.21.23-.31.35-5.98,6.88-10.16,14.98-12.29,23.71-1.99-8.44-7.68-15.45-15.27-19.21,4.79-5.71,8.36-12.46,10.36-19.57,6.9,3.53,12.89,8.58,17.52,14.71Z"/>
        <path class="cls-1" d="m20.66,113.04l-.91,1.28-2.26,3.16L0,141.99v-35.67l17.49-24.5v9.14c-.08,1.19-.12,2.39-.12,3.6s.04,2.41.12,3.6c.28,4.22,1.05,8.32,2.26,12.21.28.91.58,1.8.91,2.68Z"/>
      </g>
      <g>
        <path class="cls-2" d="m256.91,170.22V42.67h44.74c31.22,0,50.26,12.37,50.26,33.89,0,15.61-8.38,25.7-21.89,29.89,14.66,3.43,23.8,12.18,23.8,28.56,0,26.46-23.42,35.22-53.12,35.22h-43.79Zm19.42-71.58h25.89c21.32,0,30.27-6.47,30.27-20.75,0-12.57-11.04-19.04-29.89-19.04h-26.27v39.79Zm0,55.4h25.32c17.52,0,32.75-3.43,32.75-20.37,0-13.9-10.28-18.85-32.17-18.85h-25.89v39.22Z"/>
        <path class="cls-2" d="m379.9,67.61c6.85,0,12.18-5.52,12.18-12.37s-5.33-12.57-12.18-12.57-12.37,5.71-12.37,12.57,5.52,12.37,12.37,12.37Z"/>
        <rect class="cls-2" x="370.38" y="76.93" width="18.85" height="93.29"/>
        <path class="cls-2" d="m409.41,170.22V42.67h18.85v73.11h11.42c.95-2.29,2.47-4.38,4.38-6.28l29.89-32.55h23.04l-40.17,43.79c-1.14.95-1.71,1.71-1.71,2.67s.57,1.71,1.71,2.67l39.98,44.17h-23.23l-29.7-32.55c-1.9-2.28-3.43-4.57-4.38-7.04h-11.23v39.6h-18.85Z"/>
        <path class="cls-2" d="m494.88,123.01c0-26.84,19.23-48.74,47.21-48.74s45.69,20.37,45.69,46.45v7.61h-74.63c2.09,15.99,14.28,27.22,31.03,27.22,11.42,0,21.7-4.95,27.22-15.23l14.47,7.42c-8.19,15.99-23.23,24.56-41.5,24.56-28.37,0-49.5-20.56-49.5-49.31Zm74.06-6.85c-.76-14.85-11.61-24.94-27.03-24.94s-26.08,11.04-27.99,24.94h55.02Z"/>
        <path class="cls-2" d="m613.87,170.22V42.67h44.36c27.03,0,48.17,12.37,48.17,38.65,0,18.09-11.04,31.22-28.94,35.03,10.28,4.95,15.8,15.42,23.23,30.46l11.61,23.42h-20.94l-10.66-21.51c-7.62-15.04-13.9-24.94-31.79-24.94h-15.8l-.19,46.45h-19.04Zm19.42-109.66l-.19,45.88h24.94c16.37,0,28.37-8,28.37-23.42s-12.56-22.46-27.99-22.46h-25.13Z"/>
        <path class="cls-2" d="m790.54,121.86v-44.93h18.85v47.21c0,27.03-16.37,48.36-45.69,48.36s-45.31-21.51-45.31-48.55v-47.02h18.85v45.12c0,17.13,9.33,32.17,26.46,32.17s26.84-15.04,26.84-32.36Z"/>
        <path class="cls-2" d="m838.71,135.48v-43.41h-18.47v-16.37h18.47l.2-33.03h18.85l-.2,33.03h35.79v16.37h-35.79v42.84c0,12.18,7.23,19.42,18.47,19.42,6.09,0,12.76-2.28,17.32-5.52v17.32c-4.76,3.24-12.18,5.33-19.04,5.33-23.23,0-35.6-14.66-35.6-35.98Z"/>
        <path class="cls-2" d="m900.78,123.39c0-26.65,21.32-48.74,49.69-48.74s49.69,20.94,49.69,48.74v46.83h-17.9v-16.37c-7.04,11.42-19.42,18.66-34.65,18.66-27.03,0-46.83-22.08-46.83-49.12Zm80.53.19c0-17.13-13.33-31.22-30.84-31.22s-30.84,14.09-30.84,31.22,13.52,31.03,30.84,31.03,30.84-14.09,30.84-31.03Z"/>
      </g>
    </g>
  </g>
</svg>