<?xml version="1.0" encoding="UTF-8"?>
<svg id="Layer_2" data-name="Layer 2" xmlns="http://www.w3.org/2000/svg" viewBox="0 0 743.83 916.18">
  <defs>
    <style>
      .cls-1 {
        fill: #62e4a4;
      }

      .cls-2 {
        fill: #232d39;
      }
    </style>
  </defs>
  <g id="Layer_1-2" data-name="Layer 1">
    <g>
      <g>
        <path class="cls-2" d="m.59,913.89v-127.55h44.74c31.22,0,50.26,12.37,50.26,33.89,0,15.61-8.38,25.7-21.89,29.89,14.66,3.43,23.8,12.18,23.8,28.56,0,26.46-23.42,35.22-53.12,35.22H.59Zm19.42-71.58h25.89c21.32,0,30.27-6.47,30.27-20.75,0-12.57-11.04-19.04-29.89-19.04h-26.27v39.79Zm0,55.4h25.32c17.52,0,32.75-3.43,32.75-20.37,0-13.9-10.28-18.85-32.17-18.85h-25.89v39.22Z"/>
        <path class="cls-2" d="m123.57,811.28c6.85,0,12.18-5.52,12.18-12.37s-5.33-12.57-12.18-12.57-12.37,5.71-12.37,12.57,5.52,12.37,12.37,12.37Z"/>
        <rect class="cls-2" x="114.05" y="820.61" width="18.85" height="93.29"/>
        <path class="cls-2" d="m153.08,913.89v-127.55h18.85v73.11h11.42c.95-2.29,2.47-4.38,4.38-6.28l29.89-32.55h23.04l-40.17,43.79c-1.14.95-1.71,1.71-1.71,2.67s.57,1.71,1.71,2.67l39.98,44.17h-23.23l-29.7-32.55c-1.9-2.28-3.43-4.57-4.38-7.04h-11.23v39.6h-18.85Z"/>
        <path class="cls-2" d="m238.56,866.68c0-26.84,19.23-48.74,47.21-48.74s45.69,20.37,45.69,46.45v7.61h-74.63c2.09,15.99,14.28,27.22,31.03,27.22,11.42,0,21.7-4.95,27.22-15.23l14.47,7.42c-8.19,15.99-23.23,24.56-41.5,24.56-28.37,0-49.5-20.56-49.5-49.31Zm74.06-6.85c-.76-14.85-11.61-24.94-27.03-24.94s-26.08,11.04-27.99,24.94h55.02Z"/>
        <path class="cls-2" d="m357.55,913.89v-127.55h44.36c27.03,0,48.17,12.37,48.17,38.65,0,18.09-11.04,31.22-28.94,35.03,10.28,4.95,15.8,15.42,23.23,30.46l11.61,23.42h-20.94l-10.66-21.51c-7.62-15.04-13.9-24.94-31.79-24.94h-15.8l-.19,46.45h-19.04Zm19.42-109.66l-.19,45.88h24.94c16.37,0,28.37-8,28.37-23.42s-12.56-22.46-27.99-22.46h-25.13Z"/>
        <path class="cls-2" d="m534.22,865.54v-44.93h18.85v47.21c0,27.03-16.37,48.36-45.69,48.36s-45.31-21.51-45.31-48.55v-47.02h18.85v45.12c0,17.13,9.33,32.17,26.46,32.17s26.84-15.04,26.84-32.36Z"/>
        <path class="cls-2" d="m582.39,879.15v-43.41h-18.47v-16.37h18.47l.2-33.03h18.85l-.2,33.03h35.79v16.37h-35.79v42.84c0,12.18,7.23,19.42,18.47,19.42,6.09,0,12.76-2.28,17.32-5.52v17.32c-4.76,3.24-12.18,5.33-19.04,5.33-23.23,0-35.6-14.66-35.6-35.98Z"/>
        <path class="cls-2" d="m644.45,867.06c0-26.65,21.32-48.74,49.69-48.74s49.69,20.94,49.69,48.74v46.83h-17.9v-16.37c-7.04,11.42-19.42,18.66-34.65,18.66-27.03,0-46.83-22.08-46.83-49.12Zm80.53.19c0-17.13-13.33-31.22-30.84-31.22s-30.84,14.09-30.84,31.22,13.52,31.03,30.84,31.03,30.84-14.09,30.84-31.03Z"/>
      </g>
      <g>
        <path class="cls-2" d="m743.83,91.35v561.13c0,50.45-40.9,91.35-91.35,91.35H91.35c-50.45,0-91.35-40.9-91.35-91.35V91.35C0,48.7,29.23,12.88,68.74,2.83c7.23-1.85,14.81-2.83,22.61-2.83h561.13c50.45,0,91.35,40.9,91.35,91.35Z"/>
        <path class="cls-1" d="m246.35,152.42c-35.67,0-68.93,10.49-96.8,28.51v107.06c2.39-5.68,5.26-11.11,8.56-16.23h.01c1.77-2.78,3.68-5.44,5.71-8.03,19.37-24.71,49.48-40.62,83.27-40.62,58.32,0,105.75,47.44,105.75,105.76,0,10.38-1.5,20.4-4.3,29.88-12.91,43.81-53.51,75.87-101.45,75.87-15.09,0-29.46-3.18-42.46-8.9-24.77-10.89-44.58-31.01-55.09-55.98-4.27-10.16-7-21.12-7.88-32.58-.22-2.73-.34-5.5-.34-8.29,0-1.43-.06-14.46-.06-14.46V0l-72.53,2.83v268.36l.49-.68c-.17.51-.33,1.01-.49,1.52v64.9c.18,4.26.53,8.5,1.03,12.67,1.25,10.56,3.44,20.83,6.49,30.73.12.43.26.83.39,1.24,11.32,35.86,33.91,66.82,63.61,88.81.34.24.67.49,1.01.73,0,0,.01.01.02.01,2.7,1.98,5.44,3.86,8.26,5.68,7.24,4.68,14.84,8.85,22.76,12.47,22.56,10.3,47.64,16.04,74.04,16.04.53,0,1.06,0,1.57-.01,53.52-.46,101.47-24.51,133.79-62.15,16.78-19.54,29.34-42.74,36.29-68.21,4.01-14.69,6.15-30.13,6.15-46.07,0-97.3-79.76-176.45-177.8-176.45Z"/>
        <path class="cls-1" d="m246.35,152.42c-35.67,0-68.93,10.49-96.8,28.51v107.06c2.39-5.68,5.26-11.11,8.56-16.23h.01c1.77-2.78,3.68-5.44,5.71-8.03,19.37-24.71,49.48-40.62,83.27-40.62,58.32,0,105.75,47.44,105.75,105.76,0,10.38-1.5,20.4-4.3,29.88-12.91,43.81-53.51,75.87-101.45,75.87-15.09,0-29.46-3.18-42.46-8.9-24.77-10.89-44.58-31.01-55.09-55.98-4.27-10.16-7-21.12-7.88-32.58-.22-2.73-.34-5.5-.34-8.29,0-1.43-.06-14.46-.06-14.46V0h-49.92c-7.8,0-15.38.98-22.61,2.83v268.36l.49-.68c-.17.51-.33,1.01-.49,1.52v64.9c.18,4.26.53,8.5,1.03,12.67,1.25,10.56,3.44,20.83,6.49,30.73.12.43.26.83.39,1.24,11.32,35.86,33.91,66.82,63.61,88.81.34.24.67.49,1.01.73,0,0,.01.01.02.01,2.7,1.98,5.44,3.86,8.26,5.68,7.24,4.68,14.84,8.85,22.76,12.47,22.56,10.3,47.64,16.04,74.04,16.04.53,0,1.06,0,1.57-.01,53.52-.46,101.47-24.51,133.79-62.15,16.78-19.54,29.34-42.74,36.29-68.21,4.01-14.69,6.15-30.13,6.15-46.07,0-97.3-79.76-176.45-177.8-176.45Z"/>
        <path class="cls-1" d="m743.83,404.52v128.83c-12.15-49.4-56.75-86.03-109.89-86.03-62.44,0-113.08,50.56-113.18,112.99,0,2.59.09,5.17.27,7.72v175.8h-78.01v-183.67c0-3.24.09-6.46.25-9.66.2-4.02.52-8,.97-11.95,4.44-39.32,20.83-75.01,45.47-103.36,9.25-10.65,19.66-20.26,31.05-28.64,31.61-23.28,70.65-37.05,112.93-37.05s79.04,12.96,110.14,35.02Z"/>
        <path class="cls-1" d="m485.45,429.31c-.36.41-.73.81-1.08,1.23-20.83,23.95-35.38,52.12-42.78,82.54-6.94-29.37-26.75-53.76-53.16-66.87,16.68-19.87,29.11-43.35,36.06-68.1,24.01,12.28,44.85,29.87,60.97,51.21Z"/>
        <path class="cls-1" d="m71.91,393.44l-3.18,4.45-7.86,11.01L0,494.18v-124.15l60.87-85.28v31.81c-.28,4.14-.42,8.31-.42,12.52s.14,8.38.42,12.52c.97,14.7,3.66,28.94,7.86,42.5.98,3.15,2.03,6.26,3.18,9.34Z"/>
      </g>
    </g>
  </g>
</svg>