<?xml version="1.0" encoding="UTF-8"?>
<svg id="Layer_2" data-name="Layer 2" xmlns="http://www.w3.org/2000/svg" viewBox="0 0 743.83 916.18">
  <defs>
    <style>
      .cls-1 {
        fill: #fff;
      }
    </style>
  </defs>
  <g id="Layer_1-2" data-name="Layer 1">
    <g>
      <g>
        <path class="cls-1" d="m73.69,850.12c13.52-4.19,21.9-14.28,21.9-29.89,0-21.51-19.04-33.89-50.26-33.89H.59v127.56h43.78c29.7,0,53.12-8.76,53.12-35.22,0-16.38-9.14-25.13-23.8-28.56Zm-53.69-47.6h26.28c18.85,0,29.89,6.48,29.89,19.04,0,14.28-8.95,20.75-30.27,20.75h-25.9v-39.79Zm25.33,95.19h-25.33v-39.21h25.9c21.89,0,32.17,4.95,32.17,18.84,0,16.95-15.23,20.37-32.74,20.37Z"/>
        <path class="cls-1" d="m123.57,811.28c6.85,0,12.18-5.52,12.18-12.37s-5.33-12.57-12.18-12.57-12.37,5.71-12.37,12.57,5.52,12.37,12.37,12.37Z"/>
        <rect class="cls-1" x="114.05" y="820.61" width="18.85" height="93.29"/>
        <path class="cls-1" d="m198.77,867.06c0-.95.57-1.71,1.72-2.66l40.17-43.79h-23.04l-29.89,32.56c-1.9,1.9-3.43,3.99-4.38,6.28h-11.42v-73.11h-18.85v127.56h18.85v-39.6h11.23c.95,2.47,2.48,4.76,4.38,7.04l29.7,32.56h23.23l-39.98-44.17c-1.15-.95-1.72-1.71-1.72-2.67Z"/>
        <path class="cls-1" d="m331.47,864.4c0-26.08-17.52-46.45-45.7-46.45s-47.21,21.89-47.21,48.73c0,28.75,21.13,49.31,49.5,49.31,18.28,0,33.32-8.57,41.5-24.56l-14.47-7.42c-5.52,10.28-15.8,15.23-27.22,15.23-16.75,0-28.94-11.23-31.03-27.23h74.63v-7.61Zm-73.87-4.57c1.9-13.9,12.18-24.94,27.98-24.94s26.28,10.09,27.04,24.94h-55.02Z"/>
        <path class="cls-1" d="m444.36,890.48c-7.42-15.04-12.95-25.51-23.23-30.46,17.9-3.81,28.94-16.94,28.94-35.03,0-26.27-21.13-38.65-48.16-38.65h-44.36v127.56h19.03l.2-46.46h15.8c17.89,0,24.17,9.9,31.79,24.94l10.66,21.52h20.94l-11.61-23.42Zm-42.65-40.36h-24.93l.19-45.88h25.13c15.42,0,27.98,6.66,27.98,22.46s-11.99,23.42-28.37,23.42Z"/>
        <path class="cls-1" d="m534.22,820.61v44.93c0,17.33-9.52,32.37-26.84,32.37s-26.47-15.04-26.47-32.18v-45.12h-18.84v47.03c0,27.03,16.37,48.54,45.31,48.54s45.69-21.32,45.69-48.35v-47.22h-18.85Z"/>
        <path class="cls-1" d="m637.02,835.75v-16.38h-35.79l.21-33.03h-18.85l-.2,33.03h-18.47v16.38h18.47v43.4c0,21.33,12.37,35.98,35.6,35.98,6.85,0,14.28-2.09,19.03-5.33v-17.32c-4.56,3.24-11.23,5.52-17.32,5.52-11.23,0-18.47-7.23-18.47-19.42v-42.83h35.79Z"/>
        <path class="cls-1" d="m694.14,818.33c-28.37,0-49.69,22.08-49.69,48.73s19.8,49.12,46.83,49.12c15.23,0,27.61-7.23,34.65-18.66v16.38h17.9v-46.84c0-27.79-21.51-48.73-49.69-48.73Zm0,79.96c-17.32,0-30.84-14.09-30.84-31.04s13.52-31.22,30.84-31.22,30.84,14.09,30.84,31.22-13.32,31.04-30.84,31.04Z"/>
      </g>
      <g>
        <path class="cls-1" d="m652.48,0H141.27v314.41s.06,13.03.06,14.46c0,2.79.12,5.56.34,8.29.88,11.46,3.61,22.42,7.88,32.58,10.51,24.97,30.32,45.09,55.09,55.98,13,5.72,27.37,8.9,42.46,8.9,47.94,0,88.54-32.06,101.45-75.87,2.8-9.48,4.3-19.5,4.3-29.88,0-58.32-47.43-105.76-105.75-105.76-33.79,0-63.9,15.91-83.27,40.62-2.03,2.59-3.94,5.25-5.71,8.02h-.01c-3.3,5.13-6.17,10.56-8.56,16.24v-107.06c27.87-18.02,61.13-28.51,96.8-28.51,98.04,0,177.8,79.15,177.8,176.45,0,15.94-2.14,31.38-6.15,46.07-6.95,25.47-19.51,48.67-36.29,68.21-32.32,37.64-80.27,61.69-133.79,62.15-.51.01-1.04.01-1.57.01-26.4,0-51.48-5.74-74.04-16.04-7.92-3.62-15.52-7.79-22.76-12.47-2.82-1.82-5.56-3.7-8.26-5.68-.01,0-.02,0-.02,0-.34-.24-.67-.49-1.01-.73-29.7-21.99-52.29-52.95-63.61-88.81-.13-.41-.27-.81-.39-1.24-3.05-9.9-5.24-20.17-6.49-30.73-.5-4.17-.85-8.41-1.03-12.67v-64.9c.16-.51.32-1.01.49-1.52l-.49.68V2.83C29.23,12.88,0,48.7,0,91.35v278.68l60.87-85.28v31.81c-.28,4.14-.42,8.31-.42,12.52s.14,8.38.42,12.52c.97,14.7,3.66,28.94,7.86,42.5.98,3.15,2.03,6.26,3.18,9.34l-3.18,4.45-7.86,11.01L0,494.18v158.3c0,50.45,40.9,91.35,91.35,91.35h351.67v-183.67c0-3.24.09-6.46.25-9.66.2-4.02.52-8,.97-11.95,4.44-39.32,20.83-75.01,45.47-103.36,9.25-10.65,19.66-20.26,31.05-28.64,31.61-23.28,70.65-37.05,112.93-37.05s79.04,12.96,110.14,35.02V91.35c0-50.45-40.9-91.35-91.35-91.35Zm-168.12,430.54c-20.83,23.95-35.38,52.12-42.78,82.54-6.94-29.37-26.75-53.76-53.16-66.88,16.68-19.86,29.11-43.35,36.06-68.1,24.01,12.28,44.85,29.87,60.96,51.21-.36.41-.73.81-1.08,1.23Z"/>
        <path class="cls-1" d="m743.83,533.35v119.13c0,50.45-40.9,91.35-91.35,91.35h-131.45v-175.8c-.18-2.55-.27-5.13-.27-7.72.1-62.43,50.74-112.99,113.18-112.99,53.14,0,97.74,36.63,109.89,86.03Z"/>
      </g>
    </g>
  </g>
</svg>